<?xml version="1.0" encoding="UTF-8" standalone="no"?>
<!DOCTYPE svg PUBLIC "-//W3C//DTD SVG 1.0//EN" "http://www.w3.org/TR/2001/PR-SVG-20010719/DTD/svg10.dtd">
<svg width="86cm" height="65cm" viewBox="-81 39 1706 1286" xmlns="http://www.w3.org/2000/svg" xmlns:xlink="http://www.w3.org/1999/xlink">
  <g>
    <rect style="fill: #ffffff" x="600" y="40" width="231.95" height="28"/>
    <rect style="fill: none; fill-opacity:0; stroke-width: 2; stroke: #000000" x="600" y="40" width="231.95" height="28"/>
    <text font-size="16" style="fill: #000000;text-anchor:middle;font-family:monospace;font-style:normal;font-weight:normal" x="715.975" y="59">ServiceInstallInterface</text>
    <rect style="fill: #ffffff" x="600" y="68" width="231.95" height="8"/>
    <rect style="fill: none; fill-opacity:0; stroke-width: 2; stroke: #000000" x="600" y="68" width="231.95" height="8"/>
    <rect style="fill: #ffffff" x="600" y="76" width="231.95" height="8"/>
    <rect style="fill: none; fill-opacity:0; stroke-width: 2; stroke: #000000" x="600" y="76" width="231.95" height="8"/>
  </g>
  <g>
    <rect style="fill: #ffffff" x="60" y="220" width="251.25" height="28"/>
    <rect style="fill: none; fill-opacity:0; stroke-width: 2; stroke: #000000" x="60" y="220" width="251.25" height="28"/>
    <text font-size="16" style="fill: #000000;text-anchor:middle;font-family:monospace;font-style:normal;font-weight:normal" x="185.625" y="239">AutomountInstallInterface</text>
    <rect style="fill: #ffffff" x="60" y="248" width="251.25" height="8"/>
    <rect style="fill: none; fill-opacity:0; stroke-width: 2; stroke: #000000" x="60" y="248" width="251.25" height="8"/>
    <rect style="fill: #ffffff" x="60" y="256" width="251.25" height="8"/>
    <rect style="fill: none; fill-opacity:0; stroke-width: 2; stroke: #000000" x="60" y="256" width="251.25" height="8"/>
  </g>
  <g>
    <rect style="fill: #ffffff" x="540" y="220" width="241.6" height="28"/>
    <rect style="fill: none; fill-opacity:0; stroke-width: 2; stroke: #000000" x="540" y="220" width="241.6" height="28"/>
    <text font-size="16" style="fill: #000000;text-anchor:middle;font-family:monospace;font-style:normal;font-weight:normal" x="660.8" y="239">HostNameInstallInterface</text>
    <rect style="fill: #ffffff" x="540" y="248" width="241.6" height="8"/>
    <rect style="fill: none; fill-opacity:0; stroke-width: 2; stroke: #000000" x="540" y="248" width="241.6" height="8"/>
    <rect style="fill: #ffffff" x="540" y="256" width="241.6" height="8"/>
    <rect style="fill: none; fill-opacity:0; stroke-width: 2; stroke: #000000" x="540" y="256" width="241.6" height="8"/>
  </g>
  <g>
    <rect style="fill: #ffffff" x="1240" y="220" width="280.2" height="28"/>
    <rect style="fill: none; fill-opacity:0; stroke-width: 2; stroke: #000000" x="1240" y="220" width="280.2" height="28"/>
    <text font-size="16" style="fill: #000000;text-anchor:middle;font-family:monospace;font-style:normal;font-weight:normal" x="1380.1" y="239">ServiceAdminInstallInterface</text>
    <rect style="fill: #ffffff" x="1240" y="248" width="280.2" height="8"/>
    <rect style="fill: none; fill-opacity:0; stroke-width: 2; stroke: #000000" x="1240" y="248" width="280.2" height="8"/>
    <rect style="fill: #ffffff" x="1240" y="256" width="280.2" height="8"/>
    <rect style="fill: none; fill-opacity:0; stroke-width: 2; stroke: #000000" x="1240" y="256" width="280.2" height="8"/>
  </g>
  <g>
    <polyline style="fill: none; fill-opacity:0; stroke-width: 2; stroke: #000000" points="185.625,220 185.625,120 715.974,120 715.974,93.7361 "/>
    <polygon style="fill: #000000" points="715.974,86.2361 720.974,96.2361 715.974,93.7361 710.974,96.2361 "/>
    <polygon style="fill: none; fill-opacity:0; stroke-width: 2; stroke: #000000" points="715.974,86.2361 720.974,96.2361 715.974,93.7361 710.974,96.2361 "/>
  </g>
  <g>
    <polyline style="fill: none; fill-opacity:0; stroke-width: 2; stroke: #000000" points="660.8,220 660.8,120 715.974,120 715.974,93.7361 "/>
    <polygon style="fill: #000000" points="715.974,86.2361 720.974,96.2361 715.974,93.7361 710.974,96.2361 "/>
    <polygon style="fill: none; fill-opacity:0; stroke-width: 2; stroke: #000000" points="715.974,86.2361 720.974,96.2361 715.974,93.7361 710.974,96.2361 "/>
  </g>
  <g>
    <polyline style="fill: none; fill-opacity:0; stroke-width: 2; stroke: #000000" points="1380.1,220 1380.1,120 715.974,120 715.974,93.7361 "/>
    <polygon style="fill: #000000" points="715.974,86.2361 720.974,96.2361 715.974,93.7361 710.974,96.2361 "/>
    <polygon style="fill: none; fill-opacity:0; stroke-width: 2; stroke: #000000" points="715.974,86.2361 720.974,96.2361 715.974,93.7361 710.974,96.2361 "/>
  </g>
  <g>
    <rect style="fill: #ffffff" x="360" y="540" width="222.3" height="28"/>
    <rect style="fill: none; fill-opacity:0; stroke-width: 2; stroke: #000000" x="360" y="540" width="222.3" height="28"/>
    <text font-size="16" style="fill: #000000;text-anchor:middle;font-family:monospace;font-style:normal;font-weight:normal" x="471.15" y="559">ClientInstallInterface</text>
    <rect style="fill: #ffffff" x="360" y="568" width="222.3" height="8"/>
    <rect style="fill: none; fill-opacity:0; stroke-width: 2; stroke: #000000" x="360" y="568" width="222.3" height="8"/>
    <rect style="fill: #ffffff" x="360" y="576" width="222.3" height="8"/>
    <rect style="fill: none; fill-opacity:0; stroke-width: 2; stroke: #000000" x="360" y="576" width="222.3" height="8"/>
  </g>
  <g>
    <rect style="fill: #ffffff" x="60" y="660" width="135.45" height="28"/>
    <rect style="fill: none; fill-opacity:0; stroke-width: 2; stroke: #000000" x="60" y="660" width="135.45" height="28"/>
    <text font-size="16" style="fill: #000000;text-anchor:middle;font-family:monospace;font-style:normal;font-weight:normal" x="127.725" y="679">ClientInstall</text>
    <rect style="fill: #ffffff" x="60" y="688" width="135.45" height="8"/>
    <rect style="fill: none; fill-opacity:0; stroke-width: 2; stroke: #000000" x="60" y="688" width="135.45" height="8"/>
    <rect style="fill: #ffffff" x="60" y="696" width="135.45" height="8"/>
    <rect style="fill: none; fill-opacity:0; stroke-width: 2; stroke: #000000" x="60" y="696" width="135.45" height="8"/>
  </g>
  <g>
    <rect style="fill: #ffffff" x="-80" y="800" width="193.35" height="28"/>
    <rect style="fill: none; fill-opacity:0; stroke-width: 2; stroke: #000000" x="-80" y="800" width="193.35" height="28"/>
    <text font-size="16" style="fill: #000000;text-anchor:middle;font-family:monospace;font-style:normal;font-weight:normal" x="16.675" y="819">CompatClientInstall</text>
    <rect style="fill: #ffffff" x="-80" y="828" width="193.35" height="8"/>
    <rect style="fill: none; fill-opacity:0; stroke-width: 2; stroke: #000000" x="-80" y="828" width="193.35" height="8"/>
    <rect style="fill: #ffffff" x="-80" y="836" width="193.35" height="8"/>
    <rect style="fill: none; fill-opacity:0; stroke-width: 2; stroke: #000000" x="-80" y="836" width="193.35" height="8"/>
  </g>
  <g>
    <polyline style="fill: none; fill-opacity:0; stroke-width: 2; stroke: #000000" points="471.15,540 471.15,480 660.8,480 660.8,273.736 "/>
    <polygon style="fill: #000000" points="660.8,266.236 665.8,276.236 660.8,273.736 655.8,276.236 "/>
    <polygon style="fill: none; fill-opacity:0; stroke-width: 2; stroke: #000000" points="660.8,266.236 665.8,276.236 660.8,273.736 655.8,276.236 "/>
  </g>
  <g>
    <polyline style="fill: none; fill-opacity:0; stroke-width: 2; stroke: #000000" points="127.725,660 127.725,462 185.625,462 185.625,273.736 "/>
    <polygon style="fill: #000000" points="185.625,266.236 190.625,276.236 185.625,273.736 180.625,276.236 "/>
    <polygon style="fill: none; fill-opacity:0; stroke-width: 2; stroke: #000000" points="185.625,266.236 190.625,276.236 185.625,273.736 180.625,276.236 "/>
  </g>
  <g>
    <polyline style="fill: none; fill-opacity:0; stroke-width: 2; stroke: #000000" points="127.725,660 127.725,622 471.15,622 471.15,593.736 "/>
    <polygon style="fill: #000000" points="471.15,586.236 476.15,596.236 471.15,593.736 466.15,596.236 "/>
    <polygon style="fill: none; fill-opacity:0; stroke-width: 2; stroke: #000000" points="471.15,586.236 476.15,596.236 471.15,593.736 466.15,596.236 "/>
  </g>
  <g>
    <polyline style="fill: none; fill-opacity:0; stroke-width: 2; stroke: #000000" points="16.675,800 16.675,752 127.725,752 127.725,713.736 "/>
    <polygon style="fill: #000000" points="127.725,706.236 132.725,716.236 127.725,713.736 122.725,716.236 "/>
    <polygon style="fill: none; fill-opacity:0; stroke-width: 2; stroke: #000000" points="127.725,706.236 132.725,716.236 127.725,713.736 122.725,716.236 "/>
  </g>
  <g>
    <rect style="fill: #ffffff" x="1000" y="540" width="222.3" height="28"/>
    <rect style="fill: none; fill-opacity:0; stroke-width: 2; stroke: #000000" x="1000" y="540" width="222.3" height="28"/>
    <text font-size="16" style="fill: #000000;text-anchor:middle;font-family:monospace;font-style:normal;font-weight:normal" x="1111.15" y="559">DogtagInstallInterface</text>
    <rect style="fill: #ffffff" x="1000" y="568" width="222.3" height="8"/>
    <rect style="fill: none; fill-opacity:0; stroke-width: 2; stroke: #000000" x="1000" y="568" width="222.3" height="8"/>
    <rect style="fill: #ffffff" x="1000" y="576" width="222.3" height="8"/>
    <rect style="fill: none; fill-opacity:0; stroke-width: 2; stroke: #000000" x="1000" y="576" width="222.3" height="8"/>
  </g>
  <g>
    <polyline style="fill: none; fill-opacity:0; stroke-width: 2; stroke: #000000" points="1111.15,539.002 1111.15,120 715.974,120 715.974,93.7361 "/>
    <polygon style="fill: #000000" points="715.974,86.2361 720.974,96.2361 715.974,93.7361 710.974,96.2361 "/>
    <polygon style="fill: none; fill-opacity:0; stroke-width: 2; stroke: #000000" points="715.974,86.2361 720.974,96.2361 715.974,93.7361 710.974,96.2361 "/>
  </g>
  <g>
    <rect style="fill: #ffffff" x="700" y="540" width="193.35" height="28"/>
    <rect style="fill: none; fill-opacity:0; stroke-width: 2; stroke: #000000" x="700" y="540" width="193.35" height="28"/>
    <text font-size="16" style="fill: #000000;text-anchor:middle;font-family:monospace;font-style:normal;font-weight:normal" x="796.675" y="559">DNSInstallInterface</text>
    <rect style="fill: #ffffff" x="700" y="568" width="193.35" height="8"/>
    <rect style="fill: none; fill-opacity:0; stroke-width: 2; stroke: #000000" x="700" y="568" width="193.35" height="8"/>
    <rect style="fill: #ffffff" x="700" y="576" width="193.35" height="8"/>
    <rect style="fill: none; fill-opacity:0; stroke-width: 2; stroke: #000000" x="700" y="576" width="193.35" height="8"/>
  </g>
  <g>
    <polyline style="fill: none; fill-opacity:0; stroke-width: 2; stroke: #000000" points="796.676,540 796.676,480 660.8,480 660.8,273.736 "/>
    <polygon style="fill: #000000" points="660.8,266.236 665.8,276.236 660.8,273.736 655.8,276.236 "/>
    <polygon style="fill: none; fill-opacity:0; stroke-width: 2; stroke: #000000" points="660.8,266.236 665.8,276.236 660.8,273.736 655.8,276.236 "/>
  </g>
  <g>
    <polyline style="fill: none; fill-opacity:0; stroke-width: 2; stroke: #000000" points="471.15,540 471.15,400 1380.1,400 1380.1,273.736 "/>
    <polygon style="fill: #000000" points="1380.1,266.236 1385.1,276.236 1380.1,273.736 1375.1,276.236 "/>
    <polygon style="fill: none; fill-opacity:0; stroke-width: 2; stroke: #000000" points="1380.1,266.236 1385.1,276.236 1380.1,273.736 1375.1,276.236 "/>
  </g>
  <g>
    <rect style="fill: #ffffff" x="1200" y="720" width="183.7" height="28"/>
    <rect style="fill: none; fill-opacity:0; stroke-width: 2; stroke: #000000" x="1200" y="720" width="183.7" height="28"/>
    <text font-size="16" style="fill: #000000;text-anchor:middle;font-family:monospace;font-style:normal;font-weight:normal" x="1291.85" y="739">CAInstallInterface</text>
    <rect style="fill: #ffffff" x="1200" y="748" width="183.7" height="8"/>
    <rect style="fill: none; fill-opacity:0; stroke-width: 2; stroke: #000000" x="1200" y="748" width="183.7" height="8"/>
    <rect style="fill: #ffffff" x="1200" y="756" width="183.7" height="8"/>
    <rect style="fill: none; fill-opacity:0; stroke-width: 2; stroke: #000000" x="1200" y="756" width="183.7" height="8"/>
  </g>
  <g>
    <rect style="fill: #ffffff" x="860" y="720" width="193.35" height="28"/>
    <rect style="fill: none; fill-opacity:0; stroke-width: 2; stroke: #000000" x="860" y="720" width="193.35" height="28"/>
    <text font-size="16" style="fill: #000000;text-anchor:middle;font-family:monospace;font-style:normal;font-weight:normal" x="956.675" y="739">KRAInstallInterface</text>
    <rect style="fill: #ffffff" x="860" y="748" width="193.35" height="8"/>
    <rect style="fill: none; fill-opacity:0; stroke-width: 2; stroke: #000000" x="860" y="748" width="193.35" height="8"/>
    <rect style="fill: #ffffff" x="860" y="756" width="193.35" height="8"/>
    <rect style="fill: none; fill-opacity:0; stroke-width: 2; stroke: #000000" x="860" y="756" width="193.35" height="8"/>
  </g>
  <g>
    <polyline style="fill: none; fill-opacity:0; stroke-width: 2; stroke: #000000" points="956.675,720 956.675,652 1111.15,652 1111.15,593.736 "/>
    <polygon style="fill: #000000" points="1111.15,586.236 1116.15,596.236 1111.15,593.736 1106.15,596.236 "/>
    <polygon style="fill: none; fill-opacity:0; stroke-width: 2; stroke: #000000" points="1111.15,586.236 1116.15,596.236 1111.15,593.736 1106.15,596.236 "/>
  </g>
  <g>
    <polyline style="fill: none; fill-opacity:0; stroke-width: 2; stroke: #000000" points="1291.85,720 1291.85,652 1111.15,652 1111.15,593.736 "/>
    <polygon style="fill: #000000" points="1111.15,586.236 1116.15,596.236 1111.15,593.736 1106.15,596.236 "/>
    <polygon style="fill: none; fill-opacity:0; stroke-width: 2; stroke: #000000" points="1111.15,586.236 1116.15,596.236 1111.15,593.736 1106.15,596.236 "/>
  </g>
  <g>
    <rect style="fill: #ffffff" x="1440" y="440" width="183.7" height="28"/>
    <rect style="fill: none; fill-opacity:0; stroke-width: 2; stroke: #000000" x="1440" y="440" width="183.7" height="28"/>
    <text font-size="16" style="fill: #000000;text-anchor:middle;font-family:monospace;font-style:normal;font-weight:normal" x="1531.85" y="459">ConnCheckInterface</text>
    <rect style="fill: #ffffff" x="1440" y="468" width="183.7" height="8"/>
    <rect style="fill: none; fill-opacity:0; stroke-width: 2; stroke: #000000" x="1440" y="468" width="183.7" height="8"/>
    <rect style="fill: #ffffff" x="1440" y="476" width="183.7" height="8"/>
    <rect style="fill: none; fill-opacity:0; stroke-width: 2; stroke: #000000" x="1440" y="476" width="183.7" height="8"/>
  </g>
  <g>
    <polyline style="fill: none; fill-opacity:0; stroke-width: 2; stroke: #000000" points="1531.85,440 1531.85,400 1380.1,400 1380.1,273.736 "/>
    <polygon style="fill: #000000" points="1380.1,266.236 1385.1,276.236 1380.1,273.736 1375.1,276.236 "/>
    <polygon style="fill: none; fill-opacity:0; stroke-width: 2; stroke: #000000" points="1380.1,266.236 1385.1,276.236 1380.1,273.736 1375.1,276.236 "/>
  </g>
  <g>
    <polyline style="fill: none; fill-opacity:0; stroke-width: 2; stroke: #000000" points="1291.85,720 1291.85,602 1531.85,602 1531.85,493.736 "/>
    <polygon style="fill: #000000" points="1531.85,486.236 1536.85,496.236 1531.85,493.736 1526.85,496.236 "/>
    <polygon style="fill: none; fill-opacity:0; stroke-width: 2; stroke: #000000" points="1531.85,486.236 1536.85,496.236 1531.85,493.736 1526.85,496.236 "/>
  </g>
  <g>
    <rect style="fill: #ffffff" x="1000" y="980" width="222.3" height="28"/>
    <rect style="fill: none; fill-opacity:0; stroke-width: 2; stroke: #000000" x="1000" y="980" width="222.3" height="28"/>
    <text font-size="16" style="fill: #000000;text-anchor:middle;font-family:monospace;font-style:normal;font-weight:normal" x="1111.15" y="999">ServerInstallInterface</text>
    <rect style="fill: #ffffff" x="1000" y="1008" width="222.3" height="8"/>
    <rect style="fill: none; fill-opacity:0; stroke-width: 2; stroke: #000000" x="1000" y="1008" width="222.3" height="8"/>
    <rect style="fill: #ffffff" x="1000" y="1016" width="222.3" height="8"/>
    <rect style="fill: none; fill-opacity:0; stroke-width: 2; stroke: #000000" x="1000" y="1016" width="222.3" height="8"/>
  </g>
  <g>
    <polyline style="fill: none; fill-opacity:0; stroke-width: 2; stroke: #000000" points="1111.15,980 1111.15,860 956.676,860 956.676,773.736 "/>
    <polygon style="fill: #000000" points="956.676,766.236 961.676,776.236 956.676,773.736 951.676,776.236 "/>
    <polygon style="fill: none; fill-opacity:0; stroke-width: 2; stroke: #000000" points="956.676,766.236 961.676,776.236 956.676,773.736 951.676,776.236 "/>
  </g>
  <g>
    <polyline style="fill: none; fill-opacity:0; stroke-width: 2; stroke: #000000" points="1111.15,979.119 1111.15,860 1291.85,860 1291.85,773.736 "/>
    <polygon style="fill: #000000" points="1291.85,766.236 1296.85,776.236 1291.85,773.736 1286.85,776.236 "/>
    <polygon style="fill: none; fill-opacity:0; stroke-width: 2; stroke: #000000" points="1291.85,766.236 1296.85,776.236 1291.85,773.736 1286.85,776.236 "/>
  </g>
  <g>
    <polyline style="fill: none; fill-opacity:0; stroke-width: 2; stroke: #000000" points="1111.15,980 1111.15,900 796.676,900 796.676,593.736 "/>
    <polygon style="fill: #000000" points="796.676,586.236 801.676,596.236 796.676,593.736 791.676,596.236 "/>
    <polygon style="fill: none; fill-opacity:0; stroke-width: 2; stroke: #000000" points="796.676,586.236 801.676,596.236 796.676,593.736 791.676,596.236 "/>
  </g>
  <g>
    <polyline style="fill: none; fill-opacity:0; stroke-width: 2; stroke: #000000" points="1111.15,979.008 1111.15,920 1531.85,920 1531.85,493.736 "/>
    <polygon style="fill: #000000" points="1531.85,486.236 1536.85,496.236 1531.85,493.736 1526.85,496.236 "/>
    <polygon style="fill: none; fill-opacity:0; stroke-width: 2; stroke: #000000" points="1531.85,486.236 1536.85,496.236 1531.85,493.736 1526.85,496.236 "/>
  </g>
  <g>
    <rect style="fill: #ffffff" x="880" y="1140" width="193.35" height="28"/>
    <rect style="fill: none; fill-opacity:0; stroke-width: 2; stroke: #000000" x="880" y="1140" width="193.35" height="28"/>
    <text font-size="16" style="fill: #000000;text-anchor:middle;font-family:monospace;font-style:normal;font-weight:normal" x="976.675" y="1159">ServerMasterInstall</text>
    <rect style="fill: #ffffff" x="880" y="1168" width="193.35" height="8"/>
    <rect style="fill: none; fill-opacity:0; stroke-width: 2; stroke: #000000" x="880" y="1168" width="193.35" height="8"/>
    <rect style="fill: #ffffff" x="880" y="1176" width="193.35" height="8"/>
    <rect style="fill: none; fill-opacity:0; stroke-width: 2; stroke: #000000" x="880" y="1176" width="193.35" height="8"/>
  </g>
  <g>
    <rect style="fill: #ffffff" x="1260" y="1140" width="203" height="28"/>
    <rect style="fill: none; fill-opacity:0; stroke-width: 2; stroke: #000000" x="1260" y="1140" width="203" height="28"/>
    <text font-size="16" style="fill: #000000;text-anchor:middle;font-family:monospace;font-style:normal;font-weight:normal" x="1361.5" y="1159">ServerReplicaInstall</text>
    <rect style="fill: #ffffff" x="1260" y="1168" width="203" height="8"/>
    <rect style="fill: none; fill-opacity:0; stroke-width: 2; stroke: #000000" x="1260" y="1168" width="203" height="8"/>
    <rect style="fill: #ffffff" x="1260" y="1176" width="203" height="8"/>
    <rect style="fill: none; fill-opacity:0; stroke-width: 2; stroke: #000000" x="1260" y="1176" width="203" height="8"/>
  </g>
  <g>
    <polyline style="fill: none; fill-opacity:0; stroke-width: 2; stroke: #000000" points="976.675,1138.99 976.675,1081.5 1111.15,1081.5 1111.15,1033.74 "/>
    <polygon style="fill: #000000" points="1111.15,1026.24 1116.15,1036.24 1111.15,1033.74 1106.15,1036.24 "/>
    <polygon style="fill: none; fill-opacity:0; stroke-width: 2; stroke: #000000" points="1111.15,1026.24 1116.15,1036.24 1111.15,1033.74 1106.15,1036.24 "/>
  </g>
  <g>
    <polyline style="fill: none; fill-opacity:0; stroke-width: 2; stroke: #000000" points="1361.5,1140 1361.5,1082 1111.15,1082 1111.15,1033.74 "/>
    <polygon style="fill: #000000" points="1111.15,1026.24 1116.15,1036.24 1111.15,1033.74 1106.15,1036.24 "/>
    <polygon style="fill: none; fill-opacity:0; stroke-width: 2; stroke: #000000" points="1111.15,1026.24 1116.15,1036.24 1111.15,1033.74 1106.15,1036.24 "/>
  </g>
  <g>
    <rect style="fill: #ffffff" x="1275" y="1280" width="260.9" height="28"/>
    <rect style="fill: none; fill-opacity:0; stroke-width: 2; stroke: #000000" x="1275" y="1280" width="260.9" height="28"/>
    <text font-size="16" style="fill: #000000;text-anchor:middle;font-family:monospace;font-style:normal;font-weight:normal" x="1405.45" y="1299">CompatServerReplicaInstall</text>
    <rect style="fill: #ffffff" x="1275" y="1308" width="260.9" height="8"/>
    <rect style="fill: none; fill-opacity:0; stroke-width: 2; stroke: #000000" x="1275" y="1308" width="260.9" height="8"/>
    <rect style="fill: #ffffff" x="1275" y="1316" width="260.9" height="8"/>
    <rect style="fill: none; fill-opacity:0; stroke-width: 2; stroke: #000000" x="1275" y="1316" width="260.9" height="8"/>
  </g>
  <g>
    <rect style="fill: #ffffff" x="780" y="1280" width="251.25" height="28"/>
    <rect style="fill: none; fill-opacity:0; stroke-width: 2; stroke: #000000" x="780" y="1280" width="251.25" height="28"/>
    <text font-size="16" style="fill: #000000;text-anchor:middle;font-family:monospace;font-style:normal;font-weight:normal" x="905.625" y="1299">CompatServerMasterInstall</text>
    <rect style="fill: #ffffff" x="780" y="1308" width="251.25" height="8"/>
    <rect style="fill: none; fill-opacity:0; stroke-width: 2; stroke: #000000" x="780" y="1308" width="251.25" height="8"/>
    <rect style="fill: #ffffff" x="780" y="1316" width="251.25" height="8"/>
    <rect style="fill: none; fill-opacity:0; stroke-width: 2; stroke: #000000" x="780" y="1316" width="251.25" height="8"/>
  </g>
  <g>
    <polyline style="fill: none; fill-opacity:0; stroke-width: 2; stroke: #000000" points="905.625,1280 905.625,1232 976.675,1232 976.675,1193.74 "/>
    <polygon style="fill: #000000" points="976.675,1186.24 981.675,1196.24 976.675,1193.74 971.675,1196.24 "/>
    <polygon style="fill: none; fill-opacity:0; stroke-width: 2; stroke: #000000" points="976.675,1186.24 981.675,1196.24 976.675,1193.74 971.675,1196.24 "/>
  </g>
  <g>
    <polyline style="fill: none; fill-opacity:0; stroke-width: 2; stroke: #000000" points="1405.45,1280 1405.45,1232 1361.5,1232 1361.5,1193.74 "/>
    <polygon style="fill: #000000" points="1361.5,1186.24 1366.5,1196.24 1361.5,1193.74 1356.5,1196.24 "/>
    <polygon style="fill: none; fill-opacity:0; stroke-width: 2; stroke: #000000" points="1361.5,1186.24 1366.5,1196.24 1361.5,1193.74 1356.5,1196.24 "/>
  </g>
</svg>
