<?xml version="1.0" encoding="UTF-8"?>
<!DOCTYPE svg PUBLIC "-//W3C//DTD SVG 1.1//EN" "http://www.w3.org/Graphics/SVG/1.1/DTD/svg11.dtd">
<svg version="1.2" width="210mm" height="148mm" viewBox="0 0 21000 14800" preserveAspectRatio="xMidYMid" fill-rule="evenodd" clip-path="url(#presentation_clip_path)" stroke-width="28.222" stroke-linejoin="round" xmlns="http://www.w3.org/2000/svg" xmlns:ooo="http://xml.openoffice.org/svg/export" xmlns:xlink="http://www.w3.org/1999/xlink" xml:space="preserve">
 <defs class="ClipPathGroup">
  <clipPath id="presentation_clip_path" clipPathUnits="userSpaceOnUse">
   <rect x="0" y="0" width="21000" height="14800"/>
  </clipPath>
 </defs>
 <defs class="TextShapeIndex">
  <g ooo:slide="id1" ooo:id-list="id3 id4 id5 id6 id7 id8 id9 id10 id11 id12 id13 id14 id15"/>
 </defs>
 <defs class="EmbeddedBulletChars">
  <g id="bullet-char-template(57356)" transform="scale(0.00048828125,-0.00048828125)">
   <path d="M 580,1141 L 1163,571 580,0 -4,571 580,1141 Z"/>
  </g>
  <g id="bullet-char-template(57354)" transform="scale(0.00048828125,-0.00048828125)">
   <path d="M 8,1128 L 1137,1128 1137,0 8,0 8,1128 Z"/>
  </g>
  <g id="bullet-char-template(10146)" transform="scale(0.00048828125,-0.00048828125)">
   <path d="M 174,0 L 602,739 174,1481 1456,739 174,0 Z M 1358,739 L 309,1346 659,739 1358,739 Z"/>
  </g>
  <g id="bullet-char-template(10132)" transform="scale(0.00048828125,-0.00048828125)">
   <path d="M 2015,739 L 1276,0 717,0 1260,543 174,543 174,936 1260,936 717,1481 1274,1481 2015,739 Z"/>
  </g>
  <g id="bullet-char-template(10007)" transform="scale(0.00048828125,-0.00048828125)">
   <path d="M 0,-2 C -7,14 -16,27 -25,37 L 356,567 C 262,823 215,952 215,954 215,979 228,992 255,992 264,992 276,990 289,987 310,991 331,999 354,1012 L 381,999 492,748 772,1049 836,1024 860,1049 C 881,1039 901,1025 922,1006 886,937 835,863 770,784 769,783 710,716 594,584 L 774,223 C 774,196 753,168 711,139 L 727,119 C 717,90 699,76 672,76 641,76 570,178 457,381 L 164,-76 C 142,-110 111,-127 72,-127 30,-127 9,-110 8,-76 1,-67 -2,-52 -2,-32 -2,-23 -1,-13 0,-2 Z"/>
  </g>
  <g id="bullet-char-template(10004)" transform="scale(0.00048828125,-0.00048828125)">
   <path d="M 285,-33 C 182,-33 111,30 74,156 52,228 41,333 41,471 41,549 55,616 82,672 116,743 169,778 240,778 293,778 328,747 346,684 L 369,508 C 377,444 397,411 428,410 L 1163,1116 C 1174,1127 1196,1133 1229,1133 1271,1133 1292,1118 1292,1087 L 1292,965 C 1292,929 1282,901 1262,881 L 442,47 C 390,-6 338,-33 285,-33 Z"/>
  </g>
  <g id="bullet-char-template(9679)" transform="scale(0.00048828125,-0.00048828125)">
   <path d="M 813,0 C 632,0 489,54 383,161 276,268 223,411 223,592 223,773 276,916 383,1023 489,1130 632,1184 813,1184 992,1184 1136,1130 1245,1023 1353,916 1407,772 1407,592 1407,412 1353,268 1245,161 1136,54 992,0 813,0 Z"/>
  </g>
  <g id="bullet-char-template(8226)" transform="scale(0.00048828125,-0.00048828125)">
   <path d="M 346,457 C 273,457 209,483 155,535 101,586 74,649 74,723 74,796 101,859 155,911 209,963 273,989 346,989 419,989 480,963 531,910 582,859 608,796 608,723 608,648 583,586 532,535 482,483 420,457 346,457 Z"/>
  </g>
  <g id="bullet-char-template(8211)" transform="scale(0.00048828125,-0.00048828125)">
   <path d="M -4,459 L 1135,459 1135,606 -4,606 -4,459 Z"/>
  </g>
 </defs>
 <defs class="TextEmbeddedBitmaps"/>
 <g>
  <g id="id2" class="Master_Slide">
   <g id="bg-id2" class="Background"/>
   <g id="bo-id2" class="BackgroundObjects"/>
  </g>
 </g>
 <g class="SlideGroup">
  <g>
   <g id="id1" class="Slide" clip-path="url(#presentation_clip_path)">
    <g class="Page">
     <g class="Group">
      <g class="Group">
       <g class="com.sun.star.drawing.CustomShape">
        <g id="id3">
         <path fill="rgb(0,147,217)" stroke="none" d="M 2543,1669 C 2406,1669 2270,1805 2270,1942 L 2270,3037 C 2270,3173 2406,3310 2543,3310 L 5199,3310 C 5336,3310 5473,3173 5473,3037 L 5473,1942 C 5473,1805 5336,1669 5199,1669 L 2543,1669 Z M 2270,1669 L 2270,1669 Z M 5473,3311 L 5473,3311 Z"/>
         <path fill="none" stroke="rgb(52,101,175)" d="M 2543,1669 C 2406,1669 2270,1805 2270,1942 L 2270,3037 C 2270,3173 2406,3310 2543,3310 L 5199,3310 C 5336,3310 5473,3173 5473,3037 L 5473,1942 C 5473,1805 5336,1669 5199,1669 L 2543,1669 Z"/>
         <path fill="none" stroke="rgb(52,101,175)" d="M 2270,1669 L 2270,1669 Z"/>
         <path fill="none" stroke="rgb(52,101,175)" d="M 5473,3311 L 5473,3311 Z"/>
         <text class="TextShape"><tspan class="TextParagraph" font-family="Liberation Sans, sans-serif" font-size="423px" font-weight="400"><tspan class="TextPosition" x="2716" y="2164"><tspan fill="rgb(0,0,0)" stroke="none">Provisioning</tspan></tspan></tspan><tspan class="TextParagraph" font-family="Liberation Sans, sans-serif" font-size="423px" font-weight="400"><tspan class="TextPosition" x="3046" y="2638"><tspan fill="rgb(0,0,0)" stroke="none">System /</tspan></tspan></tspan><tspan class="TextParagraph" font-family="Liberation Sans, sans-serif" font-size="423px" font-weight="400"><tspan class="TextPosition" x="2622" y="3112"><tspan fill="rgb(0,0,0)" stroke="none">Administrator</tspan></tspan></tspan></text>
        </g>
       </g>
       <g class="com.sun.star.drawing.CustomShape">
        <g id="id4">
         <path fill="rgb(255,149,14)" stroke="none" d="M 9331,1669 C 9194,1669 9058,1805 9058,1942 L 9058,3037 C 9058,3173 9194,3310 9331,3310 L 11987,3310 C 12124,3310 12261,3173 12261,3037 L 12261,1942 C 12261,1805 12124,1669 11987,1669 L 9331,1669 Z M 9058,1669 L 9058,1669 Z M 12261,3311 L 12261,3311 Z"/>
         <path fill="none" stroke="rgb(52,101,175)" d="M 9331,1669 C 9194,1669 9058,1805 9058,1942 L 9058,3037 C 9058,3173 9194,3310 9331,3310 L 11987,3310 C 12124,3310 12261,3173 12261,3037 L 12261,1942 C 12261,1805 12124,1669 11987,1669 L 9331,1669 Z"/>
         <path fill="none" stroke="rgb(52,101,175)" d="M 9058,1669 L 9058,1669 Z"/>
         <path fill="none" stroke="rgb(52,101,175)" d="M 12261,3311 L 12261,3311 Z"/>
         <text class="TextShape"><tspan class="TextParagraph" font-family="Liberation Sans, sans-serif" font-size="423px" font-weight="400"><tspan class="TextPosition" x="9470" y="2638"><tspan fill="rgb(0,0,0)" stroke="none">New Replica</tspan></tspan></tspan></text>
        </g>
       </g>
       <g class="com.sun.star.drawing.CustomShape">
        <g id="id5">
         <path fill="rgb(87,157,28)" stroke="none" d="M 16142,1669 C 16005,1669 15869,1805 15869,1942 L 15869,3037 C 15869,3173 16005,3310 16142,3310 L 18798,3310 C 18935,3310 19072,3173 19072,3037 L 19072,1942 C 19072,1805 18935,1669 18798,1669 L 16142,1669 Z M 15869,1669 L 15869,1669 Z M 19072,3311 L 19072,3311 Z"/>
         <path fill="none" stroke="rgb(52,101,175)" d="M 16142,1669 C 16005,1669 15869,1805 15869,1942 L 15869,3037 C 15869,3173 16005,3310 16142,3310 L 18798,3310 C 18935,3310 19072,3173 19072,3037 L 19072,1942 C 19072,1805 18935,1669 18798,1669 L 16142,1669 Z"/>
         <path fill="none" stroke="rgb(52,101,175)" d="M 15869,1669 L 15869,1669 Z"/>
         <path fill="none" stroke="rgb(52,101,175)" d="M 19072,3311 L 19072,3311 Z"/>
         <text class="TextShape"><tspan class="TextParagraph" font-family="Liberation Sans, sans-serif" font-size="423px" font-weight="400"><tspan class="TextPosition" x="16473" y="2638"><tspan fill="rgb(0,0,0)" stroke="none">IPA Server</tspan></tspan></tspan></text>
        </g>
       </g>
       <g class="com.sun.star.drawing.LineShape">
        <g id="id6">
         <path fill="none" stroke="rgb(52,101,175)" d="M 3905,4580 L 10338,4555"/>
         <path fill="rgb(52,101,175)" stroke="none" d="M 10625,4554 L 10325,4455 10325,4655 10625,4554 Z"/>
         <text class="TextShape"><tspan class="TextParagraph" font-family="Liberation Sans, sans-serif" font-size="459px" font-weight="400"><tspan class="TextPosition" x="4915" y="4479" transform="translate(4915,4479) rotate(-0.2) translate(-4915,-4479)"><tspan fill="rgb(0,0,0)" stroke="none">Instantiates new server</tspan></tspan></tspan><tspan class="TextParagraph" font-family="Liberation Sans, sans-serif" font-size="459px" font-weight="400"><tspan class="TextPosition" x="3405" y="4997" transform="translate(3405,4997) rotate(-0.2) translate(-3405,-4997)"><tspan fill="rgb(0,0,0)" stroke="none">Provides “securely” privileged account</tspan></tspan></tspan></text>
        </g>
       </g>
       <g class="com.sun.star.drawing.LineShape">
        <g id="id7">
         <path fill="none" stroke="rgb(52,101,175)" d="M 10599,6053 L 17323,6053"/>
         <path fill="rgb(52,101,175)" stroke="none" d="M 17610,6053 L 17310,5953 17310,6153 17610,6053 Z"/>
         <text class="TextShape"><tspan class="TextParagraph" font-family="Liberation Sans, sans-serif" font-size="459px" font-weight="400"><tspan class="TextPosition" x="12212" y="5444"><tspan fill="rgb(0,0,0)" stroke="none">Detects own name</tspan></tspan></tspan><tspan class="TextParagraph" font-family="Liberation Sans, sans-serif" font-size="459px" font-weight="400"><tspan class="TextPosition" x="12136" y="5956"><tspan fill="rgb(0,0,0)" stroke="none">Creates host object</tspan></tspan></tspan><tspan class="TextParagraph" font-family="Liberation Sans, sans-serif" font-size="459px" font-weight="400"><tspan class="TextPosition" x="10802" y="6468"><tspan fill="rgb(0,0,0)" stroke="none">Enrolls host into “masters” group</tspan></tspan></tspan><tspan class="TextParagraph" font-family="Liberation Sans, sans-serif" font-size="459px" font-weight="400"><tspan class="TextPosition" x="11488" y="6980"><tspan fill="rgb(0,0,0)" stroke="none">Retrieves host/replica key</tspan></tspan></tspan></text>
        </g>
       </g>
      </g>
      <g class="Group">
       <g class="com.sun.star.drawing.CustomShape">
        <g id="id8">
         <path fill="rgb(0,147,217)" stroke="none" d="M 2416,8365 C 2279,8365 2143,8501 2143,8638 L 2143,9733 C 2143,9869 2279,10006 2416,10006 L 5072,10006 C 5209,10006 5346,9869 5346,9733 L 5346,8638 C 5346,8501 5209,8365 5072,8365 L 2416,8365 Z M 2143,8365 L 2143,8365 Z M 5346,10007 L 5346,10007 Z"/>
         <path fill="none" stroke="rgb(52,101,175)" d="M 2416,8365 C 2279,8365 2143,8501 2143,8638 L 2143,9733 C 2143,9869 2279,10006 2416,10006 L 5072,10006 C 5209,10006 5346,9869 5346,9733 L 5346,8638 C 5346,8501 5209,8365 5072,8365 L 2416,8365 Z"/>
         <path fill="none" stroke="rgb(52,101,175)" d="M 2143,8365 L 2143,8365 Z"/>
         <path fill="none" stroke="rgb(52,101,175)" d="M 5346,10007 L 5346,10007 Z"/>
         <text class="TextShape"><tspan class="TextParagraph" font-family="Liberation Sans, sans-serif" font-size="423px" font-weight="400"><tspan class="TextPosition" x="2589" y="8860"><tspan fill="rgb(0,0,0)" stroke="none">Provisioning</tspan></tspan></tspan><tspan class="TextParagraph" font-family="Liberation Sans, sans-serif" font-size="423px" font-weight="400"><tspan class="TextPosition" x="2919" y="9334"><tspan fill="rgb(0,0,0)" stroke="none">System /</tspan></tspan></tspan><tspan class="TextParagraph" font-family="Liberation Sans, sans-serif" font-size="423px" font-weight="400"><tspan class="TextPosition" x="2495" y="9808"><tspan fill="rgb(0,0,0)" stroke="none">Administrator</tspan></tspan></tspan></text>
        </g>
       </g>
       <g class="com.sun.star.drawing.CustomShape">
        <g id="id9">
         <path fill="rgb(255,149,14)" stroke="none" d="M 9204,8365 C 9067,8365 8931,8501 8931,8638 L 8931,9733 C 8931,9869 9067,10006 9204,10006 L 11860,10006 C 11997,10006 12134,9869 12134,9733 L 12134,8638 C 12134,8501 11997,8365 11860,8365 L 9204,8365 Z M 8931,8365 L 8931,8365 Z M 12134,10007 L 12134,10007 Z"/>
         <path fill="none" stroke="rgb(52,101,175)" d="M 9204,8365 C 9067,8365 8931,8501 8931,8638 L 8931,9733 C 8931,9869 9067,10006 9204,10006 L 11860,10006 C 11997,10006 12134,9869 12134,9733 L 12134,8638 C 12134,8501 11997,8365 11860,8365 L 9204,8365 Z"/>
         <path fill="none" stroke="rgb(52,101,175)" d="M 8931,8365 L 8931,8365 Z"/>
         <path fill="none" stroke="rgb(52,101,175)" d="M 12134,10007 L 12134,10007 Z"/>
         <text class="TextShape"><tspan class="TextParagraph" font-family="Liberation Sans, sans-serif" font-size="423px" font-weight="400"><tspan class="TextPosition" x="9343" y="9334"><tspan fill="rgb(0,0,0)" stroke="none">New Replica</tspan></tspan></tspan></text>
        </g>
       </g>
       <g class="com.sun.star.drawing.CustomShape">
        <g id="id10">
         <path fill="rgb(87,157,28)" stroke="none" d="M 16015,8365 C 15878,8365 15742,8501 15742,8638 L 15742,9733 C 15742,9869 15878,10006 16015,10006 L 18671,10006 C 18808,10006 18945,9869 18945,9733 L 18945,8638 C 18945,8501 18808,8365 18671,8365 L 16015,8365 Z M 15742,8365 L 15742,8365 Z M 18945,10007 L 18945,10007 Z"/>
         <path fill="none" stroke="rgb(52,101,175)" d="M 16015,8365 C 15878,8365 15742,8501 15742,8638 L 15742,9733 C 15742,9869 15878,10006 16015,10006 L 18671,10006 C 18808,10006 18945,9869 18945,9733 L 18945,8638 C 18945,8501 18808,8365 18671,8365 L 16015,8365 Z"/>
         <path fill="none" stroke="rgb(52,101,175)" d="M 15742,8365 L 15742,8365 Z"/>
         <path fill="none" stroke="rgb(52,101,175)" d="M 18945,10007 L 18945,10007 Z"/>
         <text class="TextShape"><tspan class="TextParagraph" font-family="Liberation Sans, sans-serif" font-size="423px" font-weight="400"><tspan class="TextPosition" x="16346" y="9334"><tspan fill="rgb(0,0,0)" stroke="none">IPA Server</tspan></tspan></tspan></text>
        </g>
       </g>
       <g class="com.sun.star.drawing.LineShape">
        <g id="id11">
         <path fill="none" stroke="rgb(52,101,175)" d="M 3794,11187 L 17096,11187"/>
         <path fill="rgb(52,101,175)" stroke="none" d="M 17383,11187 L 17083,11087 17083,11287 17383,11187 Z"/>
         <text class="TextShape"><tspan class="TextParagraph" font-family="Liberation Sans, sans-serif" font-size="459px" font-weight="400"><tspan class="TextPosition" x="7515" y="10578"><tspan fill="rgb(0,0,0)" stroke="none">Assigns a name for the replica</tspan></tspan></tspan><tspan class="TextParagraph" font-family="Liberation Sans, sans-serif" font-size="459px" font-weight="400"><tspan class="TextPosition" x="8620" y="11090"><tspan fill="rgb(0,0,0)" stroke="none">Creates host object</tspan></tspan></tspan><tspan class="TextParagraph" font-family="Liberation Sans, sans-serif" font-size="459px" font-weight="400"><tspan class="TextPosition" x="7286" y="11602"><tspan fill="rgb(0,0,0)" stroke="none">Enrolls host into “masters” group</tspan></tspan></tspan><tspan class="TextParagraph" font-family="Liberation Sans, sans-serif" font-size="459px" font-weight="400"><tspan class="TextPosition" x="8315" y="12114"><tspan fill="rgb(0,0,0)" stroke="none">Retrieves OTP/Keytab</tspan></tspan></tspan></text>
        </g>
       </g>
       <g class="com.sun.star.drawing.LineShape">
        <g id="id12">
         <path fill="none" stroke="rgb(52,101,175)" d="M 3872,12849 L 10596,12849"/>
         <path fill="rgb(52,101,175)" stroke="none" d="M 10883,12849 L 10583,12749 10583,12949 10883,12849 Z"/>
         <text class="TextShape"><tspan class="TextParagraph" font-family="Liberation Sans, sans-serif" font-size="459px" font-weight="400"><tspan class="TextPosition" x="5028" y="12752"><tspan fill="rgb(0,0,0)" stroke="none">Instantiates new server</tspan></tspan></tspan><tspan class="TextParagraph" font-family="Liberation Sans, sans-serif" font-size="459px" font-weight="400"><tspan class="TextPosition" x="3212" y="13264"><tspan fill="rgb(0,0,0)" stroke="none">Provides OTP/Keytab via secure channel</tspan></tspan></tspan></text>
        </g>
       </g>
      </g>
      <g class="com.sun.star.drawing.LineShape">
       <g id="id13">
        <path fill="none" stroke="rgb(0,0,0)" d="M 1000,7404 L 20000,7404"/>
       </g>
      </g>
      <g class="com.sun.star.drawing.TextShape">
       <g id="id14">
        <text class="TextShape"><tspan class="TextParagraph" font-family="Liberation Sans, sans-serif" font-size="423px" font-weight="400"><tspan class="TextPosition" x="1204" y="1464"><tspan fill="rgb(0,0,0)" stroke="none">1. Privileged account used directly on the replica</tspan></tspan></tspan></text>
       </g>
      </g>
      <g class="com.sun.star.drawing.TextShape">
       <g id="id15">
        <text class="TextShape"><tspan class="TextParagraph" font-family="Liberation Sans, sans-serif" font-size="423px" font-weight="400"><tspan class="TextPosition" x="1150" y="7887"><tspan fill="rgb(0,0,0)" stroke="none">2. OTP/Keytab provided to the replica</tspan></tspan></tspan></text>
       </g>
      </g>
     </g>
    </g>
   </g>
  </g>
 </g>
</svg>